Coordinates
version=1
nRows=10
nColumns=46
inDegrees=yes

Units are S.I. units (second, meters, Newtons, ...)
Angles are in degrees.

endheader
time	pelvis_tilt	pelvis_list	pelvis_rotation	pelvis_tx	pelvis_ty	pelvis_tz	bb_angle	bb_tx	bb_ty	bb_tz	hip_flexion_r	hip_adduction_r	hip_rotation_r	knee_angle_r	knee_angle_r_beta	ankle_angle_r	subtalar_angle_r	mtp_angle_r	crank_angle_r	hip_flexion_l	hip_adduction_l	hip_rotation_l	knee_angle_l	knee_angle_l_beta	ankle_angle_l	subtalar_angle_l	mtp_angle_l	crank_angle_l	lumbar_extension	lumbar_bending	lumbar_rotation	arm_flex_r	arm_add_r	arm_rot_r	elbow_flex_r	pro_sup_r	wrist_flex_r	wrist_dev_r	arm_flex_l	arm_add_l	arm_rot_l	elbow_flex_l	pro_sup_l	wrist_flex_l	wrist_dev_l
      2.50500000	    -14.66236544	      7.45120442	      9.10314799	      0.21355506	      1.20469011	     -0.22406280	      0.00000000	      0.50000000	      0.00000000	      0.25000000	     29.05438854	    -13.01496286	      0.22007560	     47.34227961	      0.82627865	     -9.70163908	     -4.47069551	      0.00000000	      0.00000000	     69.03702988	      6.91696429	     -0.63138914	     89.91739077	      1.56935452	     19.32442855	     -8.30715717	      0.00000000	      0.00000000	    -57.40440931	     -6.77732536	     -9.75607481	     58.97546672	    -15.95480351	     19.59353698	     58.70552219	     47.00943487	      0.00000000	      0.00000000	     69.86308431	    -10.13453575	     34.67677633	     54.35411748	     49.86043750	      0.00000000	      0.00000000
      2.51000000	    -14.53449780	      7.19993011	      9.37283453	      0.21424775	      1.20653946	     -0.22505147	      0.00000000	      0.50000000	      0.00000000	      0.25000000	     29.74088275	    -13.04142232	      0.05383094	     49.53461246	      0.86454208	    -10.30391346	     -4.35315903	      0.00000000	      0.00000000	     68.15010356	      6.88394383	     -0.54297966	     87.90054369	      1.53415390	     18.77566212	     -7.87678338	      0.00000000	      0.00000000	    -57.73461096	     -6.14222297	     -9.69091512	     59.10524277	    -15.91169169	     19.46737015	     58.78233087	     47.02471064	      0.00000000	      0.00000000	     69.84353325	    -10.12641983	     34.55983471	     54.42823833	     49.87001216	      0.00000000	      0.00000000
      2.51500000	    -14.36504397	      6.94719338	      9.69848812	      0.21495812	      1.20823521	     -0.22598881	      0.00000000	      0.50000000	      0.00000000	      0.25000000	     30.35158408	    -13.06760983	     -0.16398272	     51.73641875	      0.90297085	    -10.75788717	     -4.31911186	      0.00000000	      0.00000000	     67.21000677	      6.93738409	     -0.43735220	     85.80825519	      1.49763658	     17.99663038	     -7.65010418	      0.00000000	      0.00000000	    -58.01641246	     -5.49267850	     -9.66101269	     59.24147412	    -15.85038793	     19.34139001	     58.85599059	     47.04304137	      0.00000000	      0.00000000	     69.85053783	    -10.13424945	     34.41223949	     54.53082922	     49.88278968	      0.00000000	      0.00000000
      2.52000000	    -14.18252488	      6.67193253	      9.92937884	      0.21584997	      1.20979916	     -0.22685239	      0.00000000	      0.50000000	      0.00000000	      0.25000000	     31.00894449	    -13.05919279	     -0.34950129	     53.89877777	      0.94071113	    -11.23022231	     -4.18502742	      0.00000000	      0.00000000	     66.02086657	      6.72158881	     -0.35895822	     83.58079358	      1.45876004	     17.39950382	     -6.72808789	      0.00000000	      0.00000000	    -58.25889164	     -4.87432234	     -9.56497827	     59.34922622	    -15.74808293	     19.27596812	     58.91437168	     47.06319301	      0.00000000	      0.00000000	     69.77240156	    -10.18023091	     34.28540307	     54.60233426	     49.89265447	      0.00000000	      0.00000000
      2.52500000	    -13.98755955	      6.30793799	     10.14985923	      0.21674893	      1.21106875	     -0.22793308	      0.00000000	      0.50000000	      0.00000000	      0.25000000	     31.67388921	    -12.98542285	     -0.56925758	     56.08805275	      0.97892119	    -11.60396134	     -4.07865002	      0.00000000	      0.00000000	     64.85813778	      6.51541998	     -0.20358960	     81.38579348	      1.42045006	     16.84335432	     -6.03668843	      0.00000000	      0.00000000	    -58.48114895	     -4.16544865	     -9.43154110	     59.45315145	    -15.63119135	     19.25641281	     58.94576753	     47.08605397	      0.00000000	      0.00000000	     69.66277334	    -10.24009649	     34.14731326	     54.70012839	     49.90777245	      0.00000000	      0.00000000
      2.53000000	    -13.75895485	      5.92304470	     10.33031160	      0.21772683	      1.21212447	     -0.22881982	      0.00000000	      0.50000000	      0.00000000	      0.25000000	     32.34182069	    -12.85640875	     -0.78764981	     58.31386563	      1.01776895	    -11.91993883	     -4.04901021	      0.00000000	      0.00000000	     63.59691394	      6.22429798	     -0.08622725	     79.15419649	      1.38150135	     16.17539917	     -5.42757350	      0.00000000	      0.00000000	    -58.66856922	     -3.50278833	     -9.23508159	     59.59288494	    -15.50902447	     19.29105663	     58.97249670	     47.11256615	      0.00000000	      0.00000000	     69.51532046	    -10.31362628	     34.01147963	     54.79570186	     49.92295031	      0.00000000	      0.00000000
      2.53500000	    -13.42194546	      5.62575659	     10.51426965	      0.21881580	      1.21316460	     -0.22988634	      0.00000000	      0.50000000	      0.00000000	      0.25000000	     32.92350222	    -12.87471189	     -1.06151755	     60.58092420	      1.05733659	    -12.14492557	     -3.85407862	      0.00000000	      0.00000000	     62.11650726	      6.03592371	      0.00048866	     76.86179010	      1.34149131	     15.48702500	     -5.05056875	      0.00000000	      0.00000000	    -58.97049426	     -2.75356660	     -9.43222111	     59.89879857	    -15.02815721	     19.76333217	     58.67904924	     47.27219822	      0.00000000	      0.00000000	     69.03948972	    -10.82597655	     33.29465525	     55.57691075	     50.09066917	      0.00000000	      0.00000000
      2.54000000	    -13.21622780	      5.15022463	     10.57746315	      0.21982470	      1.21369168	     -0.23059320	      0.00000000	      0.50000000	      0.00000000	      0.25000000	     33.69970336	    -12.56397622	     -1.17028904	     62.79894604	      1.09604838	    -12.36060929	     -3.98985370	      0.00000000	      0.00000000	     60.77359455	      5.58545816	      0.16244307	     74.59100401	      1.30185861	     14.78334390	     -4.41807390	      0.00000000	      0.00000000	    -59.06303648	     -2.09702421	     -9.07839704	     60.04967771	    -14.92110105	     19.84310491	     58.67730458	     47.29434752	      0.00000000	      0.00000000	     68.83087282	    -10.88595837	     33.27437925	     55.57313372	     50.10250585	      0.00000000	      0.00000000
      2.54500000	    -12.95744803	      4.51711118	     10.58300649	      0.22100538	      1.21398162	     -0.23139687	      0.00000000	      0.50000000	      0.00000000	      0.25000000	     34.45194262	    -12.10100275	     -1.37102878	     64.98664957	      1.13423100	    -12.59629525	     -4.00117599	      0.00000000	      0.00000000	     59.34188837	      5.02710842	      0.43820738	     72.35390688	      1.26281390	     14.38466821	     -4.07826077	      0.00000000	      0.00000000	    -59.09546302	     -1.38888110	     -8.56061671	     59.96660726	    -14.75383973	     19.95374624	     58.66273996	     47.30972030	      0.00000000	      0.00000000	     68.63161426	    -10.99397271	     33.25345065	     55.54948050	     50.10267592	      0.00000000	      0.00000000
      2.55000000	    -12.75977506	      4.35565079	     10.59792391	      0.22207352	      1.21415812	     -0.23225381	      0.00000000	      0.50000000	      0.00000000	      0.25000000	     35.38352949	    -12.16063035	     -1.32432280	     67.40820633	      1.17649514	    -12.71851218	     -4.19583257	      0.00000000	      0.00000000	     57.78319036	      4.79399259	      0.42463271	     69.96866994	      1.22118366	     13.65314484	     -3.33980097	      0.00000000	      0.00000000	    -59.21301399	     -0.95727902	     -8.46112850	     60.18437048	    -14.71176524	     20.18310984	     58.67131509	     47.35702503	      0.00000000	      0.00000000	     68.37830987	    -11.04392573	     33.14184818	     55.63317484	     50.12473185	      0.00000000	      0.00000000
